<svg width="136" height="136" viewBox="0 0 136 136" fill="none" xmlns="http://www.w3.org/2000/svg">
<path d="M74.2743 1.14905L73.9629 7.87603L73.0908 7.81374L73.4023 1.8342L70.2879 1.70963L69.9765 7.68916L69.1045 7.62688L69.4782 0.899902L74.2743 1.14905Z" fill="#192632"/>
<path d="M76.1428 5.82062C76.0182 7.00407 76.7034 7.56465 77.5754 7.68923C78.1982 7.75151 78.572 7.75151 78.9457 7.62694L79.008 8.24981C78.6965 8.37438 78.136 8.43667 77.3885 8.3121C75.8936 8.12523 75.2085 7.00407 75.3953 5.57148C75.5822 4.13888 76.5788 3.14229 78.0114 3.32915C79.5686 3.5783 79.8177 4.94861 79.6931 5.88291C79.6931 6.06977 79.6308 6.19434 79.6308 6.25663L76.1428 5.82062ZM78.7588 5.57148C78.8211 5.01089 78.7588 4.13888 77.7622 4.01431C76.8902 3.88973 76.3919 4.63717 76.2051 5.26004L78.7588 5.57148Z" fill="#192632"/>
<path d="M80.8766 5.57157C81.0012 4.94871 81.1257 4.45041 81.188 4.0144L81.9355 4.20126L81.8109 5.01099C82.3092 4.5127 82.9321 4.32584 83.6795 4.5127C84.8007 4.76185 85.4235 5.9453 85.1121 7.37789C84.7384 9.05964 83.4927 9.6825 82.3715 9.43336C81.7486 9.30878 81.2503 8.87278 81.0635 8.37448L80.5029 10.9282L79.6309 10.7414L80.8766 5.57157ZM81.4372 7.00417C81.4372 7.12874 81.3749 7.25332 81.3749 7.37789C81.3749 8.00076 81.8109 8.56134 82.4338 8.68591C83.3681 8.87278 84.0532 8.24991 84.3024 7.19103C84.4892 6.25673 84.2401 5.32243 83.3058 5.13557C82.7452 5.01099 82.0601 5.32243 81.7486 5.88301C81.6863 6.00758 81.624 6.13216 81.624 6.19444L81.4372 7.00417Z" fill="#192632"/>
<path d="M86.6696 8.0631C86.2959 9.18426 86.9187 9.86942 87.7284 10.1809C88.3513 10.3677 88.725 10.3677 89.0988 10.3677L89.0365 10.9906C88.725 11.0529 88.1645 10.9906 87.417 10.8037C85.9844 10.3677 85.4861 9.12198 85.9221 7.75167C86.3581 6.38136 87.5416 5.50934 88.8496 5.94535C90.3445 6.44364 90.3445 7.87624 90.0331 8.74826C89.9708 8.93512 89.9085 9.05969 89.9085 9.12198L86.6696 8.0631ZM89.2856 8.24996C89.4725 7.75167 89.5348 6.81737 88.5382 6.50593C87.6662 6.25678 87.0433 6.87965 86.7941 7.44023L89.2856 8.24996Z" fill="#192632"/>
<path d="M92.7108 7.43989L91.901 9.3085C91.5896 9.99365 91.4028 10.4297 91.0913 11.0525C91.5896 10.6165 91.901 10.3674 92.3993 9.99365L94.7662 8.24962L95.7005 8.62334L93.8319 13.0457L93.0845 12.7343L93.8942 10.8657C94.2057 10.1182 94.3925 9.74451 94.7039 9.05935C94.2057 9.49536 93.8319 9.80679 93.3959 10.1182C92.7108 10.6165 91.8388 11.3017 91.029 11.8623L90.0947 11.4885L91.9633 7.06617L92.7108 7.43989ZM94.0188 5.82044C93.8942 6.25644 93.9565 6.63016 94.3302 6.75474C94.7039 6.9416 95.0154 6.69245 95.2645 6.31873L95.8251 6.56788C95.4514 7.31532 94.8285 7.50218 94.1434 7.19075C93.3336 6.87931 93.2091 6.19416 93.4582 5.57129L94.0188 5.82044Z" fill="#192632"/>
<path d="M100.123 10.9281L99.8118 11.551L98.5037 10.8658L96.6351 14.5407L95.8877 14.167L97.7563 10.4921L96.4483 9.80695L96.7597 9.18408L100.123 10.9281Z" fill="#192632"/>
<path d="M101.682 11.8L100.623 13.544C100.249 14.2292 99.9375 14.6029 99.5637 15.1635C100.124 14.7898 100.436 14.6029 100.996 14.2915L103.612 12.9834L104.484 13.544L101.993 17.655L101.308 17.2189L102.367 15.4749C102.803 14.7898 102.99 14.4783 103.426 13.7932C102.865 14.1669 102.429 14.3537 101.993 14.6652C101.183 15.0389 100.249 15.5995 99.3769 16.0355L98.5049 15.5372L100.996 11.4263L101.682 11.8Z" fill="#192632"/>
<path d="M108.345 16.3469L107.037 17.9664L107.224 18.091L109.964 17.5927L110.774 18.2778L107.784 18.7138C108.345 19.2744 108.407 19.9596 108.158 20.8939C108.033 21.2053 107.909 21.7036 107.847 22.1396L107.099 21.579C107.099 21.3299 107.224 20.9562 107.348 20.5201C107.597 19.7104 107.411 19.1498 106.788 18.6515L106.663 18.527L105.355 20.2087L104.67 19.6481L107.66 15.8486L108.345 16.3469Z" fill="#192632"/>
<path d="M115.571 22.7003L115.072 23.1986L114.013 22.1398L111.148 25.1295L110.525 24.5067L113.391 21.5169L112.332 20.458L112.83 19.9597L115.571 22.7003Z" fill="#192632"/>
<path d="M117.315 28.1819C116.007 29.3654 114.574 28.9916 113.827 28.1196C112.955 27.123 113.017 25.7527 114.138 24.7561C115.322 23.6973 116.754 23.8218 117.626 24.8184C118.498 25.815 118.374 27.1853 117.315 28.1819ZM114.699 25.379C113.889 26.0642 113.702 27.0607 114.263 27.6836C114.823 28.3065 115.82 28.2442 116.63 27.559C117.253 26.9985 117.751 26.0019 117.066 25.2544C116.381 24.4447 115.384 24.7561 114.699 25.379Z" fill="#192632"/>
<path d="M119.869 27.6833C120.118 27.9325 120.554 28.3685 120.865 28.8668C121.363 29.4897 122.049 30.6731 121.177 31.296C120.678 31.6697 120.118 31.4828 119.682 31.1714C120.055 31.7943 119.993 32.4794 119.433 32.8532C118.436 33.6006 117.315 32.4171 116.754 31.6697C116.443 31.2337 116.131 30.7977 116.007 30.5485L119.869 27.6833ZM117.003 30.86C117.128 31.0468 117.253 31.2337 117.377 31.4206C117.751 31.9189 118.374 32.4794 118.934 32.1057C119.495 31.6697 119.183 31.0468 118.685 30.3617L118.311 29.8634L117.003 30.86ZM118.81 29.552L119.183 30.0502C119.557 30.5485 120.118 30.9846 120.554 30.6731C120.927 30.3617 120.865 29.9257 120.367 29.2405C120.18 28.9914 120.055 28.8668 119.931 28.7422L118.81 29.552Z" fill="#192632"/>
<path d="M120.366 36.7772L120.864 36.4035C120.428 36.4035 119.868 36.1544 119.494 35.5315C118.996 34.7218 119.307 33.912 119.868 33.5383C120.864 32.9154 121.923 33.476 122.92 35.0332L122.982 34.9709C123.293 34.784 123.854 34.2858 123.356 33.476C123.106 33.1023 122.733 32.7909 122.359 32.604L122.733 32.1057C123.169 32.2926 123.605 32.7286 123.916 33.2269C124.726 34.4726 124.041 35.3446 123.231 35.8429L121.736 36.8395C121.362 37.0887 121.051 37.2755 120.802 37.5247L120.366 36.7772ZM122.359 35.3446C121.861 34.5349 121.113 33.7252 120.366 34.2235C119.868 34.5349 119.868 34.9709 120.117 35.3446C120.428 35.9052 120.989 35.9675 121.425 35.9052C121.487 35.9052 121.612 35.8429 121.674 35.7806L122.359 35.3446Z" fill="#192632"/>
<path d="M124.29 36.9642C124.851 36.6528 125.287 36.4037 125.66 36.2168L126.034 36.902L125.349 37.338C126.034 37.4002 126.595 37.7117 126.968 38.3968C127.529 39.4557 127.031 40.6392 125.723 41.3243C124.166 42.134 122.92 41.5735 122.421 40.5769C122.11 40.0163 122.11 39.3934 122.421 38.8951L120.117 40.1409L119.743 39.3934L124.29 36.9642ZM123.543 38.3345C123.418 38.3968 123.356 38.4591 123.231 38.5214C122.795 38.9574 122.671 39.5803 122.92 40.1409C123.356 40.9506 124.29 41.0752 125.224 40.5769C126.096 40.1409 126.595 39.2688 126.159 38.4591C125.91 37.8985 125.224 37.6494 124.602 37.774C124.477 37.774 124.352 37.8363 124.228 37.8985L123.543 38.3345Z" fill="#192632"/>
<path d="M128.401 41.6977L126.159 43.7531C125.91 44.0023 125.598 44.2514 125.349 44.4383C125.661 44.4383 126.034 44.376 126.408 44.3137L129.398 44.0646L129.772 44.9366L126.159 45.1234C124.415 45.1857 123.418 45.1234 122.733 44.7497C122.235 44.5006 121.923 44.1891 121.799 44.0023L122.422 43.504C122.546 43.6908 122.795 43.8777 123.107 44.0646C123.356 44.1891 123.792 44.376 124.29 44.376C124.415 44.376 124.477 44.376 124.539 44.376C124.602 44.376 124.664 44.3137 124.726 44.2514L128.152 40.8879L128.401 41.6977Z" fill="#192632"/>
<path d="M135.751 74.2741L129.024 73.9626L129.087 73.0906L135.066 73.402L135.191 70.2877L129.211 69.9763L129.274 69.1042L136.001 69.4157L135.751 74.2741Z" fill="#192632"/>
<path d="M131.08 76.0803C129.896 75.9557 129.336 76.6409 129.211 77.5129C129.149 78.1357 129.149 78.5095 129.274 78.8832L128.651 78.9455C128.526 78.634 128.464 78.0735 128.588 77.326C128.775 75.8311 129.896 75.146 131.329 75.3328C132.762 75.5197 133.758 76.5163 133.571 77.9489C133.322 79.5061 131.952 79.7552 131.018 79.6306C130.831 79.6306 130.706 79.5683 130.644 79.5683L131.08 76.0803ZM131.329 78.6963C131.89 78.7586 132.762 78.6963 132.886 77.6997C133.011 76.8277 132.263 76.3294 131.64 76.1426L131.329 78.6963Z" fill="#192632"/>
<path d="M131.329 80.8141C131.952 80.9387 132.45 81.0632 132.886 81.1255L132.7 81.873L131.89 81.7484C132.388 82.2467 132.575 82.8696 132.388 83.617C132.139 84.7382 130.956 85.361 129.523 85.0496C127.841 84.6759 127.218 83.4301 127.468 82.309C127.592 81.6861 128.028 81.1878 128.526 81.001L125.973 80.4404L126.16 79.5684L131.329 80.8141ZM129.897 81.3747C129.772 81.3747 129.648 81.3124 129.523 81.3124C128.9 81.3124 128.34 81.7484 128.215 82.3713C128.028 83.3056 128.651 83.9907 129.71 84.2399C130.644 84.4267 131.578 84.1153 131.765 83.2433C131.89 82.6827 131.578 81.9975 131.018 81.6861C130.893 81.6238 130.769 81.5615 130.706 81.5615L129.897 81.3747Z" fill="#192632"/>
<path d="M128.901 86.6066C127.78 86.2329 127.095 86.8557 126.783 87.6655C126.596 88.2883 126.596 88.6621 126.596 89.0358L125.974 88.9735C125.911 88.6621 125.974 88.1015 126.16 87.354C126.596 85.9214 127.842 85.4231 129.212 85.8591C130.583 86.2952 131.455 87.4786 131.019 88.7866C130.52 90.2815 129.088 90.2815 128.216 89.9701C128.029 89.9078 127.904 89.8455 127.842 89.8455L128.901 86.6066ZM128.652 89.2849C129.15 89.4718 130.084 89.5341 130.396 88.5375C130.645 87.6655 130.022 87.0426 129.462 86.7934L128.652 89.2849Z" fill="#192632"/>
<path d="M129.461 92.7108L127.593 91.901C126.908 91.5896 126.472 91.4028 125.849 91.0913C126.285 91.5896 126.534 91.901 126.908 92.3993L128.652 94.7662L128.278 95.7005L123.855 93.8319L124.167 93.0845L126.036 93.8942C126.783 94.2057 127.157 94.3925 127.842 94.704C127.406 94.2057 127.094 93.8319 126.783 93.3959C126.285 92.7108 125.6 91.8388 125.039 91.029L125.413 90.0947L129.835 91.9633L129.461 92.7108ZM131.081 93.9565C130.645 93.8319 130.271 93.8942 130.146 94.2679C129.96 94.6417 130.209 94.9531 130.582 95.2022L130.333 95.7628C129.586 95.3891 129.399 94.7662 129.71 94.0811C130.022 93.2714 130.707 93.1468 131.33 93.3959L131.081 93.9565Z" fill="#192632"/>
<path d="M125.972 100.06L125.349 99.749L126.034 98.441L122.359 96.5724L122.733 95.825L126.408 97.6936L127.093 96.3855L127.716 96.697L125.972 100.06Z" fill="#192632"/>
<path d="M125.101 101.68L123.357 100.621C122.672 100.247 122.298 99.936 121.738 99.5623C122.111 100.123 122.298 100.434 122.61 100.995L123.918 103.611L123.357 104.483L119.246 101.991L119.682 101.306L121.426 102.365C122.111 102.801 122.423 102.988 123.108 103.424C122.734 102.864 122.547 102.427 122.236 101.991C121.862 101.182 121.302 100.247 120.866 99.3754L121.364 98.5034L125.475 100.995L125.101 101.68Z" fill="#192632"/>
<path d="M120.553 108.345L118.934 107.037L118.809 107.224L119.308 109.965L118.623 110.775L118.187 107.785C117.626 108.345 116.941 108.408 116.006 108.158C115.695 108.034 115.197 107.909 114.761 107.847L115.321 107.1C115.57 107.1 115.944 107.224 116.38 107.349C117.19 107.598 117.75 107.411 118.249 106.788L118.373 106.664L116.692 105.356L117.252 104.67L121.052 107.66L120.553 108.345Z" fill="#192632"/>
<path d="M114.2 115.508L113.701 115.009L114.76 113.95L111.771 111.085L112.393 110.462L115.383 113.328L116.442 112.269L116.94 112.767L114.2 115.508Z" fill="#192632"/>
<path d="M108.719 117.252C107.535 115.944 107.909 114.511 108.781 113.764C109.778 112.892 111.148 112.954 112.145 114.075C113.204 115.259 113.079 116.691 112.082 117.563C111.086 118.498 109.715 118.373 108.719 117.252ZM111.584 114.698C110.899 113.888 109.902 113.702 109.279 114.262C108.657 114.823 108.719 115.819 109.404 116.629C109.965 117.252 110.961 117.75 111.709 117.065C112.456 116.38 112.207 115.383 111.584 114.698Z" fill="#192632"/>
<path d="M109.218 119.806C108.968 120.055 108.532 120.491 108.034 120.802C107.411 121.301 106.228 121.986 105.605 121.114C105.231 120.615 105.418 120.055 105.73 119.619C105.107 119.992 104.422 119.93 104.048 119.37C103.3 118.373 104.484 117.252 105.231 116.691C105.667 116.38 106.103 116.068 106.352 115.944L109.218 119.806ZM106.041 117.003C105.854 117.127 105.667 117.252 105.48 117.376C104.982 117.75 104.422 118.373 104.795 118.934C105.231 119.494 105.854 119.183 106.539 118.684L107.038 118.311L106.041 117.003ZM107.349 118.747L106.851 119.12C106.352 119.494 105.916 120.055 106.228 120.491C106.539 120.865 106.975 120.802 107.66 120.304C107.91 120.117 108.034 119.992 108.159 119.868L107.349 118.747Z" fill="#192632"/>
<path d="M100.186 120.366L100.56 120.865C100.56 120.429 100.809 119.868 101.432 119.494C102.241 118.996 103.051 119.307 103.425 119.868C104.048 120.865 103.487 121.923 101.93 122.92L101.992 122.982C102.179 123.294 102.677 123.854 103.487 123.356C103.861 123.107 104.172 122.733 104.359 122.359L104.857 122.733C104.671 123.169 104.235 123.605 103.736 123.917C102.491 124.726 101.619 124.041 101.12 123.232L100.124 121.737C99.8745 121.363 99.6876 121.051 99.4385 120.802L100.186 120.366ZM101.619 122.359C102.428 121.861 103.238 121.114 102.74 120.366C102.428 119.868 101.992 119.868 101.619 120.117C101.058 120.429 100.996 120.989 101.058 121.425C101.058 121.487 101.12 121.612 101.182 121.674L101.619 122.359Z" fill="#192632"/>
<path d="M99.9986 124.228C100.31 124.788 100.559 125.224 100.746 125.598L100.061 125.972L99.6249 125.287C99.5626 125.972 99.2512 126.532 98.566 126.906C97.5071 127.467 96.3237 126.968 95.6385 125.66C94.8288 124.103 95.3894 122.858 96.386 122.359C96.9466 122.048 97.5694 122.048 98.0677 122.359L96.822 120.055L97.5694 119.681L99.9986 124.228ZM98.6283 123.543C98.566 123.418 98.5037 123.356 98.4414 123.231C98.0054 122.795 97.3826 122.671 96.822 122.92C96.0123 123.356 95.8877 124.29 96.386 125.224C96.822 126.096 97.694 126.595 98.5037 126.159C99.0643 125.91 99.3135 125.224 99.1889 124.602C99.1889 124.477 99.1266 124.352 99.0643 124.228L98.6283 123.543Z" fill="#192632"/>
<path d="M95.2029 128.401L93.1474 126.159C92.8983 125.91 92.6491 125.598 92.4623 125.349C92.4623 125.661 92.5246 126.034 92.5869 126.408L92.836 129.398L91.964 129.772L91.8394 126.097C91.7771 124.353 91.8394 123.356 92.2131 122.671C92.4623 122.173 92.7737 121.861 92.9606 121.737L93.4589 122.359C93.272 122.484 93.0851 122.733 92.8983 123.045C92.7737 123.294 92.5869 123.73 92.5869 124.228C92.5869 124.353 92.5869 124.415 92.5869 124.477C92.5869 124.539 92.6491 124.602 92.7114 124.664L96.0749 128.09L95.2029 128.401Z" fill="#192632"/>
<path d="M62.627 135.751L62.9384 129.024L63.8104 129.087L63.499 135.066L66.6133 135.191L66.9247 129.211L67.7968 129.274L67.4853 136.001L62.627 135.751Z" fill="#192632"/>
<path d="M60.8203 131.018C60.9449 129.834 60.2597 129.274 59.3877 129.149C58.7649 129.087 58.3911 129.087 58.0174 129.211L57.9551 128.588C58.2666 128.464 58.8272 128.402 59.5746 128.526C61.0695 128.713 61.7546 129.834 61.5678 131.267C61.3809 132.699 60.3843 133.696 58.9517 133.509C57.3946 133.26 57.1454 131.827 57.27 130.955C57.27 130.768 57.3323 130.644 57.3323 130.582L60.8203 131.018ZM58.2043 131.329C58.142 131.89 58.2043 132.762 59.2009 132.886C60.0729 133.011 60.5712 132.263 60.758 131.64L58.2043 131.329Z" fill="#192632"/>
<path d="M56.086 131.329C55.9614 131.952 55.8369 132.45 55.7746 132.886L55.0271 132.699L55.1517 131.889C54.6534 132.388 54.0305 132.575 53.2831 132.388C52.1619 132.139 51.5391 130.955 51.8505 129.523C52.2242 127.841 53.47 127.218 54.5911 127.467C55.214 127.592 55.7123 128.028 55.8992 128.526L56.4597 125.972L57.3317 126.159L56.086 131.329ZM55.5254 129.896C55.5254 129.772 55.5877 129.647 55.5877 129.523C55.5877 128.9 55.1517 128.339 54.5288 128.214C53.5945 128.028 52.9094 128.651 52.6602 129.709C52.4734 130.644 52.7225 131.578 53.6568 131.765C54.2174 131.889 54.9026 131.578 55.214 131.017C55.2763 130.893 55.3386 130.768 55.3386 130.706L55.5254 129.896Z" fill="#192632"/>
<path d="M50.2937 128.837C50.6675 127.716 50.0446 127.031 49.2349 126.72C48.612 126.533 48.2383 126.533 47.8645 126.533L47.9268 125.91C48.2383 125.848 48.7988 125.91 49.5463 126.097C50.9789 126.533 51.4772 127.778 51.0412 129.149C50.6052 130.519 49.4217 131.391 48.1137 130.955C46.6188 130.457 46.6188 129.024 46.9302 128.152C46.9925 127.965 47.0548 127.841 47.0548 127.778L50.2937 128.837ZM47.6777 128.65C47.4908 129.149 47.4285 130.083 48.4251 130.394C49.2972 130.644 49.92 130.021 50.1692 129.46L47.6777 128.65Z" fill="#192632"/>
<path d="M42.944 131.017C43.0686 130.581 43.0063 130.208 42.6326 130.083C42.2589 129.896 41.9474 130.145 41.6983 130.519L41.1377 130.27C41.5114 129.523 42.1343 129.336 42.8194 129.647C43.6292 129.959 43.7537 130.644 43.5046 131.267L42.944 131.017ZM44.252 129.46L45.0618 127.592C45.3732 126.907 45.5601 126.471 45.8715 125.848C45.3732 126.284 45.0618 126.533 44.5635 126.907L42.1966 128.651L41.2623 128.277L43.1309 123.854L43.8783 124.166L43.0686 126.035C42.7572 126.782 42.5703 127.156 42.2589 127.841C42.7571 127.405 43.1309 127.093 43.5669 126.782C44.252 126.284 45.1241 125.599 45.9338 125.038L46.8681 125.412L44.9995 129.834L44.252 129.46Z" fill="#192632"/>
<path d="M36.8408 125.972L37.1523 125.349L38.4603 126.034L40.3289 122.359L41.0763 122.733L39.2077 126.408L40.5157 127.093L40.2043 127.716L36.8408 125.972Z" fill="#192632"/>
<path d="M35.2834 125.038L36.3422 123.294C36.716 122.671 37.0274 122.235 37.4011 121.674C36.8405 122.048 36.5291 122.235 35.9685 122.546L33.3525 123.854L32.4805 123.294L34.9719 119.183L35.6571 119.619L34.5982 121.363C34.1622 122.048 33.9753 122.359 33.5393 123.045C34.0999 122.671 34.5359 122.484 34.9719 122.173C35.7817 121.799 36.716 121.238 37.588 120.802L38.46 121.301L35.9685 125.412L35.2834 125.038Z" fill="#192632"/>
<path d="M28.5552 120.554L29.8632 118.934L29.6763 118.81L26.9357 119.308L26.126 118.623L29.1158 118.187C28.5552 117.626 28.4929 116.941 28.742 116.007C28.8666 115.695 28.9912 115.197 29.0535 114.761L29.8009 115.322C29.8009 115.571 29.6763 115.944 29.5518 116.38C29.3026 117.19 29.4895 117.751 30.1123 118.249L30.2369 118.374L31.5449 116.692L32.2301 117.252L29.2403 121.052L28.5552 120.554Z" fill="#192632"/>
<path d="M21.3926 114.2L21.8909 113.701L22.9497 114.76L25.8149 111.771L26.4378 112.393L23.5726 115.383L24.6315 116.442L24.1332 116.94L21.3926 114.2Z" fill="#192632"/>
<path d="M19.649 108.719C20.9571 107.535 22.3897 107.909 23.1371 108.781C24.0091 109.778 23.9468 111.148 22.8257 112.144C21.6422 113.203 20.2096 113.079 19.3376 112.082C18.4033 111.086 18.5279 109.715 19.649 108.719ZM22.2028 111.522C23.0125 110.836 23.1994 109.84 22.6388 109.217C22.0782 108.594 21.0816 108.656 20.2719 109.342C19.649 109.902 19.1507 110.899 19.8359 111.646C20.5211 112.456 21.5177 112.144 22.2028 111.522Z" fill="#192632"/>
<path d="M17.0953 109.217C16.8462 108.968 16.4102 108.532 16.0987 108.033C15.6004 107.411 14.9153 106.227 15.7873 105.604C16.2856 105.231 16.8462 105.417 17.2822 105.729C16.9085 105.106 16.9707 104.421 17.5313 104.047C18.5279 103.3 19.6491 104.483 20.2097 105.231C20.5211 105.667 20.8325 106.103 20.9571 106.352L17.0953 109.217ZM18.1542 107.348L17.7805 106.85C17.4068 106.352 16.8462 105.916 16.4102 106.227C16.0364 106.539 16.0987 106.975 16.597 107.66C16.7839 107.909 16.9084 108.033 17.033 108.158L18.1542 107.348ZM19.9605 106.04C19.8359 105.853 19.7114 105.667 19.5868 105.48C19.2131 104.981 18.5902 104.421 18.0296 104.795C17.469 105.231 17.7805 105.853 18.2788 106.539L18.6525 107.037L19.9605 106.04Z" fill="#192632"/>
<path d="M16.597 100.123L16.0987 100.497C16.5347 100.497 17.0953 100.746 17.469 101.369C17.9673 102.179 17.6559 102.988 17.0953 103.362C16.0987 103.985 15.0398 103.424 14.0432 101.867L13.9809 101.929C13.6695 102.116 13.1089 102.615 13.6072 103.424C13.8564 103.798 14.2301 104.11 14.6038 104.296L14.2301 104.795C13.7941 104.608 13.3581 104.172 13.0466 103.674C12.2369 102.428 12.9221 101.556 13.7318 101.057L15.2267 100.061C15.6004 99.8117 15.9118 99.6249 16.161 99.3757L16.597 100.123ZM14.5415 101.556C15.0398 102.365 15.7873 103.175 16.5347 102.677C17.033 102.365 17.033 101.929 16.7838 101.556C16.4724 100.995 15.9118 100.933 15.4758 100.995C15.4135 100.995 15.289 101.057 15.2267 101.12L14.5415 101.556Z" fill="#192632"/>
<path d="M12.6724 99.9361C12.1118 100.248 11.6758 100.497 11.3021 100.684L10.9283 99.9984L11.6135 99.5624C10.9283 99.5001 10.3678 99.1887 9.99404 98.5035C9.43346 97.4446 9.93175 96.2612 11.2398 95.576C12.7969 94.7663 14.0427 95.3269 14.541 96.3235C14.8524 96.8841 14.8524 97.5069 14.541 98.0052L16.8456 96.7595L17.2193 97.5069L12.6724 99.9361ZM13.4198 98.5658C13.5444 98.5035 13.6067 98.4412 13.7312 98.3789C14.1673 97.9429 14.2918 97.3201 14.0427 96.7595C13.6067 95.9498 12.6724 95.8252 11.7381 96.3235C10.866 96.7595 10.3677 97.6315 10.8038 98.4412C11.0529 99.0018 11.7381 99.251 12.3609 99.1264C12.4855 99.1264 12.6101 99.0641 12.7347 99.0018L13.4198 98.5658Z" fill="#192632"/>
<path d="M8.49922 95.1402L10.7416 93.0847C10.9907 92.8355 11.3021 92.5864 11.5513 92.3995C11.2398 92.3995 10.8661 92.4618 10.4924 92.5241L7.50263 92.7733L7.12891 91.9012L10.8038 91.7767C12.5479 91.7144 13.5444 91.7767 14.2296 92.1504C14.7279 92.3995 15.0393 92.711 15.1639 92.8978L14.541 93.3961C14.4165 93.2093 14.1673 93.0224 13.8559 92.8355C13.6067 92.711 13.1707 92.5241 12.6724 92.5241C12.5479 92.5241 12.4856 92.5241 12.4233 92.5241C12.361 92.5241 12.2987 92.5864 12.2364 92.6487L8.81066 96.0122L8.49922 95.1402Z" fill="#192632"/>
<path d="M1.14953 62.626L7.87652 62.9374L7.81423 63.8094L1.83469 63.498L1.71013 66.6123L7.68965 66.9238L7.62738 67.7958L0.900391 67.4843L1.14953 62.626Z" fill="#192632"/>
<path d="M5.88312 60.8198C7.06657 60.9444 7.62715 60.2593 7.75173 59.3872C7.81401 58.7644 7.81401 58.3906 7.68944 58.0169L8.3123 57.9546C8.43688 58.2661 8.49917 58.8267 8.3746 59.5741C8.18773 61.069 7.06658 61.7541 5.63398 61.5673C4.20138 61.3804 3.20479 60.3838 3.39165 58.9512C3.6408 57.3941 5.01111 57.1449 5.94541 57.2695C6.13227 57.2695 6.25685 57.3318 6.31914 57.3318L5.88312 60.8198ZM5.63398 58.1415C5.0734 58.0792 4.20138 58.1415 4.07681 59.1381C3.95224 60.0101 4.69968 60.5084 5.32255 60.6953L5.63398 58.1415Z" fill="#192632"/>
<path d="M5.57182 56.0863C4.94895 55.9617 4.45066 55.8371 4.01465 55.7748L4.20152 55.0274L5.01124 55.152C4.51295 54.6537 4.32609 54.0308 4.51295 53.2834C4.7621 52.1622 5.94554 51.5393 7.37813 51.8508C9.05988 52.2245 9.68276 53.4702 9.43361 54.5914C9.30904 55.2142 8.87302 55.7125 8.37473 55.8994L10.9285 56.46L10.7416 57.332L5.57182 56.0863ZM7.00443 55.5257C7.129 55.5257 7.25356 55.588 7.37813 55.588C8.001 55.588 8.56159 55.152 8.68616 54.5291C8.87302 53.5948 8.25016 52.9096 7.19128 52.6605C6.25698 52.4736 5.32268 52.7228 5.13582 53.6571C5.01125 54.2177 5.32267 54.9028 5.88325 55.2142C6.00783 55.2765 6.1324 55.3388 6.19469 55.3388L7.00443 55.5257Z" fill="#192632"/>
<path d="M8.06383 50.2932C9.18499 50.667 9.87014 50.0441 10.1816 49.2344C10.3684 48.6115 10.3684 48.2378 10.3684 47.8641L10.9913 47.9263C11.0536 48.2378 10.9913 48.7984 10.8044 49.5458C10.3684 50.9784 9.12271 51.4767 7.7524 51.0407C6.38209 50.6047 5.51008 49.4212 5.94608 48.1132C6.44438 46.6183 7.87697 46.6183 8.74899 46.9298C8.93585 46.992 9.06043 47.0543 9.12271 47.0543L8.06383 50.2932ZM8.2507 47.6149C7.75241 47.428 6.81809 47.3658 6.50666 48.3623C6.25751 49.2344 6.88038 49.8572 7.44096 50.1064L8.2507 47.6149Z" fill="#192632"/>
<path d="M5.88391 42.9438C6.31992 43.0683 6.69364 43.0061 6.81821 42.6323C7.00507 42.2586 6.75594 41.9472 6.38221 41.698L6.63136 41.1375C7.3788 41.5112 7.56566 42.134 7.25423 42.8192C6.94279 43.6289 6.25763 43.7535 5.63477 43.5044L5.88391 42.9438ZM7.44108 44.1895L9.30968 44.9992C9.99484 45.3107 10.4309 45.4975 11.0537 45.809C10.6177 45.3107 10.3686 44.9992 9.99484 44.5009L8.25082 42.134L8.62452 41.1997L13.0469 43.0683L12.7355 43.8158L10.8669 43.0061C10.1194 42.6946 9.74569 42.5078 9.06054 42.1963C9.49655 42.6946 9.80799 43.0683 10.1194 43.5044C10.6177 44.1895 11.3029 45.0615 11.8634 45.8712L11.4897 46.8055L7.06735 44.9369L7.44108 44.1895Z" fill="#192632"/>
<path d="M10.9286 36.7771L11.5515 37.0885L10.8663 38.3966L14.5412 40.2652L14.1675 41.0126L10.4926 39.144L9.80744 40.452L9.18457 40.1406L10.9286 36.7771Z" fill="#192632"/>
<path d="M11.863 35.2197L13.607 36.2785C14.2922 36.6523 14.6659 36.9637 15.2265 37.3374C14.8527 36.7768 14.6659 36.4654 14.3545 35.9048L13.0464 33.2888L13.607 32.4167L17.7179 34.9082L17.2819 35.5934L15.5379 34.5345C14.8527 34.0985 14.5413 33.9116 13.8562 33.4756C14.2299 34.0362 14.4167 34.4722 14.7282 34.9082C15.1019 35.7179 15.6625 36.6523 16.0985 37.5243L15.6002 38.3963L11.4893 35.9048L11.863 35.2197Z" fill="#192632"/>
<path d="M16.3479 28.5554L17.9674 29.8634L18.0919 29.6766L17.5937 26.9359L18.2788 26.1262L18.7148 29.116C19.2754 28.5554 19.9605 28.4931 20.8948 28.7423C21.2063 28.8668 21.7046 28.9914 22.1406 29.0537L21.58 29.8011C21.3309 29.8011 20.9571 29.6766 20.5211 29.552C19.7114 29.3028 19.1508 29.4897 18.6525 30.1126L18.528 30.2371L20.2097 31.5452L19.6491 32.2303L15.8496 29.2406L16.3479 28.5554Z" fill="#192632"/>
<path d="M22.7641 21.3303L23.2623 21.8286L22.2035 22.8875L25.1932 25.7527L24.5704 26.3756L21.5806 23.5104L20.5217 24.5692L20.0234 24.0709L22.7641 21.3303Z" fill="#192632"/>
<path d="M28.1817 19.6483C29.3651 20.9563 28.9914 22.3889 28.1194 23.1364C27.1228 24.0084 25.7525 23.9461 24.7559 22.8249C23.697 21.6415 23.8216 20.2089 24.8182 19.3369C25.877 18.4026 27.2474 18.5271 28.1817 19.6483ZM25.3788 22.2021C26.0639 23.0118 27.0605 23.1987 27.6834 22.6381C28.3062 22.0775 28.244 21.0809 27.5588 20.2712C26.9982 19.6483 26.0016 19.15 25.2542 19.8352C24.4445 20.5203 24.7559 21.5169 25.3788 22.2021Z" fill="#192632"/>
<path d="M27.7461 17.0318C27.9952 16.7827 28.4312 16.3467 28.9295 16.0352C29.5524 15.5369 30.7359 14.8518 31.3587 15.7238C31.7324 16.2221 31.5456 16.7827 31.2342 17.2187C31.857 16.845 32.5422 16.9073 32.9159 17.4678C33.6633 18.4644 32.4799 19.5856 31.7324 20.1462C31.2964 20.4576 30.8604 20.769 30.6113 20.8936L27.7461 17.0318ZM29.5524 18.153L30.0507 17.7793C30.549 17.4056 30.985 16.845 30.6736 16.409C30.3621 16.0352 29.9261 16.0975 29.241 16.5958C28.9918 16.7827 28.8673 16.9073 28.7427 17.0318L29.5524 18.153ZM30.9227 19.897C31.1096 19.7725 31.2964 19.6479 31.4833 19.5233C31.9816 19.1496 32.5422 18.5267 32.1685 17.9661C31.7325 17.4056 31.1096 17.717 30.4244 18.2153L29.9261 18.589L30.9227 19.897Z" fill="#192632"/>
<path d="M36.778 16.534L36.4042 16.0357C36.4042 16.4717 36.1551 17.0323 35.5322 17.406C34.7225 17.9043 33.9128 17.5929 33.539 17.0323C32.9162 16.0357 33.4768 14.9768 35.0339 13.9802L34.9716 13.918C34.7848 13.6065 34.2865 13.0459 33.4768 13.5442C33.103 13.7934 32.7916 14.1671 32.6047 14.5408L32.1064 14.1671C32.2933 13.7311 32.7293 13.2951 33.2276 12.9837C34.4733 12.1739 35.3454 12.8591 35.8437 13.6688L36.8402 15.1637C37.0894 15.5374 37.2763 15.8488 37.5254 16.098L36.778 16.534ZM35.3454 14.5408C34.5356 15.0391 33.7259 15.7866 34.2242 16.534C34.5356 17.0323 34.9716 17.0323 35.3454 16.7831C35.9059 16.4717 35.9682 15.9111 35.9059 15.4751C35.9059 15.4128 35.8437 15.2883 35.7814 15.226L35.3454 14.5408Z" fill="#192632"/>
<path d="M36.9652 12.6099C36.6538 12.0493 36.4046 11.6133 36.2178 11.2396L36.9029 10.8658L37.3389 11.551C37.4012 10.8658 37.7127 10.3053 38.3978 9.93154C39.4567 9.37096 40.6401 9.86925 41.3253 11.1773C42.135 12.7344 41.5744 13.9802 40.5778 14.4785C40.0173 14.7899 39.3944 14.7899 38.8961 14.4785L40.1418 16.7831L39.3944 17.1568L36.9652 12.6099ZM38.3355 13.3573C38.3978 13.4819 38.4601 13.5442 38.5224 13.6687C38.9584 14.1048 39.5813 14.2293 40.1418 13.9802C40.9516 13.5442 41.0761 12.6099 40.5778 11.6756C40.1418 10.8036 39.2698 10.3053 38.4601 10.7413C37.8995 10.9904 37.6504 11.6756 37.7749 12.2984C37.7749 12.423 37.8372 12.5476 37.8995 12.6722L38.3355 13.3573Z" fill="#192632"/>
<path d="M41.7607 8.49897L43.8161 10.7413C44.0653 10.9904 44.3144 11.3019 44.5013 11.551C44.5013 11.2396 44.439 10.8659 44.3767 10.4921L44.1276 7.50238L44.9996 7.12866L45.1242 10.8036C45.1865 12.5476 45.1242 13.5442 44.7504 14.2294C44.5013 14.7277 44.1899 15.0391 44.003 15.1637L43.5047 14.5408C43.6916 14.4162 43.8784 14.1671 44.0653 13.8556C44.1899 13.6065 44.3767 13.1705 44.3767 12.6722C44.3767 12.5476 44.3767 12.4853 44.3767 12.423C44.3767 12.3608 44.3144 12.2985 44.2522 12.2362L40.8887 8.81041L41.7607 8.49897Z" fill="#192632"/>
</svg>
